<svg xmlns="http://www.w3.org/2000/svg" viewBox="0 0 256 256">
  <style>
    :root {
      --icon-primary: oklch(0 0 0);
      --icon-primary-foreground: oklch(1 0 0);
    }

    @media (prefers-color-scheme: dark) {
      :root {
        --icon-primary: oklch(1 0 0);
        --icon-primary-foreground: oklch(0 0 0);
      }
    }
  </style>
  <rect width="256" height="256" rx="64" fill="var(--icon-primary)" />
  <!-- Heartbeat regular path from Phosphor Icons, MIT licensed. -->
  <path
    fill="var(--icon-primary-foreground)"
    d="M72 144H32a8 8 0 0 1 0-16h35.72l13.62-20.44a8 8 0 0 1 13.32 0L120 145.56l9.34-14A8 8 0 0 1 136 128h24a8 8 0 0 1 0 16h-19.72l-13.62 20.44a8 8 0 0 1-13.32 0L88 126.42l-9.34 14A8 8 0 0 1 72 144Zm106-104c-20.65 0-38.73 8.88-50 23.89C116.73 48.88 98.65 40 78 40a62.07 62.07 0 0 0-62 62c0 .75 0 1.5.05 2.25a8 8 0 1 0 16-.5c0-.58-.05-1.17-.05-1.75a46.06 46.06 0 0 1 46-46c19.45 0 35.78 10.36 42.6 27a8 8 0 0 0 14.8 0c6.82-16.67 23.15-27 42.6-27a46.06 46.06 0 0 1 46 46c0 53.61-77.76 102.15-96 112.8-10.83-6.31-42.63-26-66.68-52.21a8 8 0 1 0-11.8 10.82c31.17 34 72.93 56.68 74.69 57.63a8 8 0 0 0 7.58 0C136.21 228.66 240 172 240 102a62.07 62.07 0 0 0-62-62Z"
  />
</svg>
